<mxfile host="app.diagrams.net" modified="2024-06-22T21:27:11.398Z" agent="Mozilla/5.0 (Macintosh; Intel Mac OS X 10.15; rv:127.0) Gecko/20100101 Firefox/127.0" etag="kcmK1KoKQdaJ5ld5hYvk" version="24.6.2" type="github">
  <diagram name="Página-1" id="CS4iCR3pgw73cPygQZ5M">
    <mxGraphModel dx="954" dy="532" grid="1" gridSize="10" guides="1" tooltips="1" connect="1" arrows="1" fold="1" page="1" pageScale="1" pageWidth="827" pageHeight="1169" math="0" shadow="0">
      <root>
        <mxCell id="0" />
        <mxCell id="1" parent="0" />
        <mxCell id="yrPN6VFHD7X4fEckNID9-1" value="Subproceso de Investigación" style="whiteSpace=wrap;strokeWidth=2;verticalAlign=top;" vertex="1" parent="1">
          <mxGeometry x="46" y="20" width="379" height="254" as="geometry" />
        </mxCell>
        <mxCell id="yrPN6VFHD7X4fEckNID9-2" value="Equipo Habilitado Designa a Investigador" style="whiteSpace=wrap;strokeWidth=2;" vertex="1" parent="yrPN6VFHD7X4fEckNID9-1">
          <mxGeometry x="43" y="33" width="309" height="35" as="geometry" />
        </mxCell>
        <mxCell id="yrPN6VFHD7X4fEckNID9-3" value="Plazo máximo 25 días" style="whiteSpace=wrap;strokeWidth=2;" vertex="1" parent="yrPN6VFHD7X4fEckNID9-1">
          <mxGeometry x="112" y="118" width="171" height="35" as="geometry" />
        </mxCell>
        <mxCell id="yrPN6VFHD7X4fEckNID9-4" value="Entrevistas y Análisis de Evidencias" style="whiteSpace=wrap;strokeWidth=2;" vertex="1" parent="yrPN6VFHD7X4fEckNID9-1">
          <mxGeometry x="63" y="202" width="269" height="35" as="geometry" />
        </mxCell>
        <mxCell id="yrPN6VFHD7X4fEckNID9-5" value="" style="curved=1;startArrow=none;endArrow=block;exitX=0.42;exitY=0.99;entryX=0.35;entryY=-0.01;rounded=0;" edge="1" parent="yrPN6VFHD7X4fEckNID9-1" source="yrPN6VFHD7X4fEckNID9-2" target="yrPN6VFHD7X4fEckNID9-3">
          <mxGeometry relative="1" as="geometry">
            <Array as="points" />
          </mxGeometry>
        </mxCell>
        <mxCell id="yrPN6VFHD7X4fEckNID9-6" value="" style="curved=1;startArrow=none;endArrow=block;exitX=0.35;exitY=0.97;entryX=0.4;entryY=0;rounded=0;" edge="1" parent="yrPN6VFHD7X4fEckNID9-1" source="yrPN6VFHD7X4fEckNID9-3" target="yrPN6VFHD7X4fEckNID9-4">
          <mxGeometry relative="1" as="geometry">
            <Array as="points" />
          </mxGeometry>
        </mxCell>
        <mxCell id="yrPN6VFHD7X4fEckNID9-7" value="Detección" style="whiteSpace=wrap;strokeWidth=2;" vertex="1" parent="1">
          <mxGeometry x="475" y="130" width="88" height="35" as="geometry" />
        </mxCell>
        <mxCell id="yrPN6VFHD7X4fEckNID9-8" value="Denuncia dentro de 24 horas" style="whiteSpace=wrap;strokeWidth=2;" vertex="1" parent="1">
          <mxGeometry x="408" y="324" width="222" height="35" as="geometry" />
        </mxCell>
        <mxCell id="yrPN6VFHD7X4fEckNID9-9" value="Registro de la denuncia" style="whiteSpace=wrap;strokeWidth=2;" vertex="1" parent="1">
          <mxGeometry x="427" y="408" width="185" height="35" as="geometry" />
        </mxCell>
        <mxCell id="yrPN6VFHD7X4fEckNID9-10" value="Investigación y Recogida de Información" style="whiteSpace=wrap;strokeWidth=2;" vertex="1" parent="1">
          <mxGeometry x="367" y="493" width="304" height="35" as="geometry" />
        </mxCell>
        <mxCell id="yrPN6VFHD7X4fEckNID9-11" value="Notificación al Acusado y Apoderados" style="whiteSpace=wrap;strokeWidth=2;" vertex="1" parent="1">
          <mxGeometry x="377" y="577" width="285" height="35" as="geometry" />
        </mxCell>
        <mxCell id="yrPN6VFHD7X4fEckNID9-12" value="Formulación de Cargos" style="whiteSpace=wrap;strokeWidth=2;" vertex="1" parent="1">
          <mxGeometry x="430" y="662" width="180" height="35" as="geometry" />
        </mxCell>
        <mxCell id="yrPN6VFHD7X4fEckNID9-13" value="¿Funcionario del Colegio?" style="rhombus;strokeWidth=2;whiteSpace=wrap;" vertex="1" parent="1">
          <mxGeometry x="404" y="746" width="232" height="232" as="geometry" />
        </mxCell>
        <mxCell id="yrPN6VFHD7X4fEckNID9-14" value="Medidas según Reglamento del Colegio" style="whiteSpace=wrap;strokeWidth=2;" vertex="1" parent="1">
          <mxGeometry x="20" y="1047" width="294" height="35" as="geometry" />
        </mxCell>
        <mxCell id="yrPN6VFHD7X4fEckNID9-15" value="Denuncia a la Autoridad Correspondiente" style="whiteSpace=wrap;strokeWidth=2;" vertex="1" parent="1">
          <mxGeometry x="364" y="1047" width="312" height="35" as="geometry" />
        </mxCell>
        <mxCell id="yrPN6VFHD7X4fEckNID9-16" value="Suspensión Temporal del Apoderado" style="whiteSpace=wrap;strokeWidth=2;" vertex="1" parent="1">
          <mxGeometry x="725" y="1047" width="274" height="35" as="geometry" />
        </mxCell>
        <mxCell id="yrPN6VFHD7X4fEckNID9-17" value="Descargos del Implicado" style="whiteSpace=wrap;strokeWidth=2;" vertex="1" parent="1">
          <mxGeometry x="567" y="1132" width="189" height="35" as="geometry" />
        </mxCell>
        <mxCell id="yrPN6VFHD7X4fEckNID9-18" value="Calificación de la Falta" style="whiteSpace=wrap;strokeWidth=2;" vertex="1" parent="1">
          <mxGeometry x="570" y="1216" width="182" height="35" as="geometry" />
        </mxCell>
        <mxCell id="yrPN6VFHD7X4fEckNID9-19" value="¿Apelación?" style="rhombus;strokeWidth=2;whiteSpace=wrap;" vertex="1" parent="1">
          <mxGeometry x="595" y="1301" width="133" height="133" as="geometry" />
        </mxCell>
        <mxCell id="yrPN6VFHD7X4fEckNID9-20" value="Apelación ante el Director" style="whiteSpace=wrap;strokeWidth=2;" vertex="1" parent="1">
          <mxGeometry x="588" y="1503" width="206" height="35" as="geometry" />
        </mxCell>
        <mxCell id="yrPN6VFHD7X4fEckNID9-21" value="Comunicación de Resolución" style="whiteSpace=wrap;strokeWidth=2;" vertex="1" parent="1">
          <mxGeometry x="552" y="1588" width="220" height="35" as="geometry" />
        </mxCell>
        <mxCell id="yrPN6VFHD7X4fEckNID9-22" value="Seguimiento" style="whiteSpace=wrap;strokeWidth=2;" vertex="1" parent="1">
          <mxGeometry x="609" y="1672" width="105" height="35" as="geometry" />
        </mxCell>
        <mxCell id="yrPN6VFHD7X4fEckNID9-23" value="Apoyo al Estudiante" style="whiteSpace=wrap;strokeWidth=2;" vertex="1" parent="1">
          <mxGeometry x="582" y="1757" width="159" height="35" as="geometry" />
        </mxCell>
        <mxCell id="yrPN6VFHD7X4fEckNID9-24" value="" style="curved=1;startArrow=none;endArrow=block;exitX=0.51;exitY=0.97;entryX=0.5;entryY=-0.01;rounded=0;" edge="1" parent="1" source="yrPN6VFHD7X4fEckNID9-7" target="yrPN6VFHD7X4fEckNID9-8">
          <mxGeometry relative="1" as="geometry">
            <Array as="points" />
          </mxGeometry>
        </mxCell>
        <mxCell id="yrPN6VFHD7X4fEckNID9-25" value="" style="curved=1;startArrow=none;endArrow=block;exitX=0.5;exitY=0.97;entryX=0.5;entryY=0;rounded=0;" edge="1" parent="1" source="yrPN6VFHD7X4fEckNID9-8" target="yrPN6VFHD7X4fEckNID9-9">
          <mxGeometry relative="1" as="geometry">
            <Array as="points" />
          </mxGeometry>
        </mxCell>
        <mxCell id="yrPN6VFHD7X4fEckNID9-26" value="" style="curved=1;startArrow=none;endArrow=block;exitX=0.5;exitY=0.99;entryX=0.5;entryY=-0.01;rounded=0;" edge="1" parent="1" source="yrPN6VFHD7X4fEckNID9-9" target="yrPN6VFHD7X4fEckNID9-10">
          <mxGeometry relative="1" as="geometry">
            <Array as="points" />
          </mxGeometry>
        </mxCell>
        <mxCell id="yrPN6VFHD7X4fEckNID9-27" value="" style="curved=1;startArrow=none;endArrow=block;exitX=0.5;exitY=0.97;entryX=0.5;entryY=0;rounded=0;" edge="1" parent="1" source="yrPN6VFHD7X4fEckNID9-10" target="yrPN6VFHD7X4fEckNID9-11">
          <mxGeometry relative="1" as="geometry">
            <Array as="points" />
          </mxGeometry>
        </mxCell>
        <mxCell id="yrPN6VFHD7X4fEckNID9-28" value="" style="curved=1;startArrow=none;endArrow=block;exitX=0.5;exitY=0.99;entryX=0.5;entryY=-0.01;rounded=0;" edge="1" parent="1" source="yrPN6VFHD7X4fEckNID9-11" target="yrPN6VFHD7X4fEckNID9-12">
          <mxGeometry relative="1" as="geometry">
            <Array as="points" />
          </mxGeometry>
        </mxCell>
        <mxCell id="yrPN6VFHD7X4fEckNID9-29" value="" style="curved=1;startArrow=none;endArrow=block;exitX=0.5;exitY=0.97;entryX=0.5;entryY=0;rounded=0;" edge="1" parent="1" source="yrPN6VFHD7X4fEckNID9-12" target="yrPN6VFHD7X4fEckNID9-13">
          <mxGeometry relative="1" as="geometry">
            <Array as="points" />
          </mxGeometry>
        </mxCell>
        <mxCell id="yrPN6VFHD7X4fEckNID9-30" value="Sí" style="curved=1;startArrow=none;endArrow=block;exitX=0;exitY=0.71;entryX=0.5;entryY=0;rounded=0;" edge="1" parent="1" source="yrPN6VFHD7X4fEckNID9-13" target="yrPN6VFHD7X4fEckNID9-14">
          <mxGeometry relative="1" as="geometry">
            <Array as="points">
              <mxPoint x="167" y="1012" />
            </Array>
          </mxGeometry>
        </mxCell>
        <mxCell id="yrPN6VFHD7X4fEckNID9-31" value="No" style="curved=1;startArrow=none;endArrow=block;exitX=0.5;exitY=1;entryX=0.5;entryY=0;rounded=0;" edge="1" parent="1" source="yrPN6VFHD7X4fEckNID9-13" target="yrPN6VFHD7X4fEckNID9-15">
          <mxGeometry relative="1" as="geometry">
            <Array as="points" />
          </mxGeometry>
        </mxCell>
        <mxCell id="yrPN6VFHD7X4fEckNID9-32" value="No" style="curved=1;startArrow=none;endArrow=block;exitX=1;exitY=0.72;entryX=0.5;entryY=0;rounded=0;" edge="1" parent="1" source="yrPN6VFHD7X4fEckNID9-13" target="yrPN6VFHD7X4fEckNID9-16">
          <mxGeometry relative="1" as="geometry">
            <Array as="points">
              <mxPoint x="863" y="1012" />
            </Array>
          </mxGeometry>
        </mxCell>
        <mxCell id="yrPN6VFHD7X4fEckNID9-33" value="" style="curved=1;startArrow=none;endArrow=block;exitX=0.5;exitY=0.99;entryX=0;entryY=0.25;rounded=0;" edge="1" parent="1" source="yrPN6VFHD7X4fEckNID9-14" target="yrPN6VFHD7X4fEckNID9-17">
          <mxGeometry relative="1" as="geometry">
            <Array as="points">
              <mxPoint x="167" y="1107" />
            </Array>
          </mxGeometry>
        </mxCell>
        <mxCell id="yrPN6VFHD7X4fEckNID9-34" value="" style="curved=1;startArrow=none;endArrow=block;exitX=0.5;exitY=0.99;entryX=0.19;entryY=-0.01;rounded=0;" edge="1" parent="1" source="yrPN6VFHD7X4fEckNID9-15" target="yrPN6VFHD7X4fEckNID9-17">
          <mxGeometry relative="1" as="geometry">
            <Array as="points">
              <mxPoint x="520" y="1107" />
            </Array>
          </mxGeometry>
        </mxCell>
        <mxCell id="yrPN6VFHD7X4fEckNID9-35" value="" style="curved=1;startArrow=none;endArrow=block;exitX=0.5;exitY=0.99;entryX=0.93;entryY=-0.01;rounded=0;" edge="1" parent="1" source="yrPN6VFHD7X4fEckNID9-16" target="yrPN6VFHD7X4fEckNID9-17">
          <mxGeometry relative="1" as="geometry">
            <Array as="points">
              <mxPoint x="863" y="1107" />
            </Array>
          </mxGeometry>
        </mxCell>
        <mxCell id="yrPN6VFHD7X4fEckNID9-36" value="" style="curved=1;startArrow=none;endArrow=block;exitX=0.5;exitY=0.97;entryX=0.5;entryY=0;rounded=0;" edge="1" parent="1" source="yrPN6VFHD7X4fEckNID9-17" target="yrPN6VFHD7X4fEckNID9-18">
          <mxGeometry relative="1" as="geometry">
            <Array as="points" />
          </mxGeometry>
        </mxCell>
        <mxCell id="yrPN6VFHD7X4fEckNID9-37" value="" style="curved=1;startArrow=none;endArrow=block;exitX=0.5;exitY=0.99;entryX=0.5;entryY=0;rounded=0;" edge="1" parent="1" source="yrPN6VFHD7X4fEckNID9-18" target="yrPN6VFHD7X4fEckNID9-19">
          <mxGeometry relative="1" as="geometry">
            <Array as="points" />
          </mxGeometry>
        </mxCell>
        <mxCell id="yrPN6VFHD7X4fEckNID9-38" value="Sí" style="curved=1;startArrow=none;endArrow=block;exitX=0.65;exitY=1;entryX=0.5;entryY=0.01;rounded=0;" edge="1" parent="1" source="yrPN6VFHD7X4fEckNID9-19" target="yrPN6VFHD7X4fEckNID9-20">
          <mxGeometry relative="1" as="geometry">
            <Array as="points">
              <mxPoint x="691" y="1469" />
            </Array>
          </mxGeometry>
        </mxCell>
        <mxCell id="yrPN6VFHD7X4fEckNID9-39" value="No" style="curved=1;startArrow=none;endArrow=block;exitX=0;exitY=0.93;entryX=0.28;entryY=-0.01;rounded=0;" edge="1" parent="1" source="yrPN6VFHD7X4fEckNID9-19" target="yrPN6VFHD7X4fEckNID9-21">
          <mxGeometry relative="1" as="geometry">
            <Array as="points">
              <mxPoint x="543" y="1469" />
              <mxPoint x="543" y="1563" />
            </Array>
          </mxGeometry>
        </mxCell>
        <mxCell id="yrPN6VFHD7X4fEckNID9-40" value="" style="curved=1;startArrow=none;endArrow=block;exitX=0.5;exitY=0.99;entryX=0.55;entryY=-0.01;rounded=0;" edge="1" parent="1" source="yrPN6VFHD7X4fEckNID9-20" target="yrPN6VFHD7X4fEckNID9-21">
          <mxGeometry relative="1" as="geometry">
            <Array as="points">
              <mxPoint x="691" y="1563" />
            </Array>
          </mxGeometry>
        </mxCell>
        <mxCell id="yrPN6VFHD7X4fEckNID9-41" value="" style="curved=1;startArrow=none;endArrow=block;exitX=0.5;exitY=0.98;entryX=0.5;entryY=0.01;rounded=0;" edge="1" parent="1" source="yrPN6VFHD7X4fEckNID9-21" target="yrPN6VFHD7X4fEckNID9-22">
          <mxGeometry relative="1" as="geometry">
            <Array as="points" />
          </mxGeometry>
        </mxCell>
        <mxCell id="yrPN6VFHD7X4fEckNID9-42" value="" style="curved=1;startArrow=none;endArrow=block;exitX=0.5;exitY=0.99;entryX=0.5;entryY=-0.01;rounded=0;" edge="1" parent="1" source="yrPN6VFHD7X4fEckNID9-22" target="yrPN6VFHD7X4fEckNID9-23">
          <mxGeometry relative="1" as="geometry">
            <Array as="points" />
          </mxGeometry>
        </mxCell>
      </root>
    </mxGraphModel>
  </diagram>
</mxfile>
